# xmcd CD database file
#
# Track frame offsets:
#	150
#	17382
#	31805
#	45856
#	60626
#	78478
#	93217
#	106236
#	118935
#	146500
#	157449
#	170692
#	195820
#	208873
#	221987
#	254678
#	273306
#	296309
#	314788
#
# Disc length: 4463 seconds
#
# Revision: 0
# Processed by: cddbd v1.5.2PL0 Copyright (c) Steve Scherf et al.
# Submitted via: CDex 1.70beta2
#
DISCID=16116d13
DTITLE=Oscar Peterson - Strike Up The Band - CD 3
DYEAR=1900
DGENRE=Jazz
TTITLE0=Cotton Tail
TTITLE1=I Got It Bad and That Ain´t Good
TTITLE2=In A Mellow Tone
TTITLE3=Prelude To A Kiss  2
TTITLE4=Don´t Get Around Much Anymore
TTITLE5=Take The ´A´ Train
TTITLE6=Rockin´ In Rhythm
TTITLE7=Do Nothing Till You Hear From Me
TTITLE8=Tea For Two  2
TTITLE9=The Song Is You
TTITLE10=Without A Song
TTITLE11=I Want To Be Happy
TTITLE12=The Lady Is A Tramp
TTITLE13=Blue Moon
TTITLE14=Lover
TTITLE15=I Only Have Eyes For You
TTITLE16=I Gotta Right To Sing The Blues
TTITLE17=You Must Have Been A Beautiful Baby
TTITLE18=Come Rain Or Come Shine
EXTD=
EXTT0=
EXTT1=
EXTT2=
EXTT3=
EXTT4=
EXTT5=
EXTT6=
EXTT7=
EXTT8=
EXTT9=
EXTT10=
EXTT11=
EXTT12=
EXTT13=
EXTT14=
EXTT15=
EXTT16=
EXTT17=
EXTT18=
PLAYORDER=
